<svg width="512" height="512" viewBox="0 0 512 512" fill="none" xmlns="http://www.w3.org/2000/svg">
<g clip-path="url(#clip0)">
<path d="M256 121.055C195.261 121.055 145.845 170.471 145.845 231.21C145.845 291.949 195.261 341.365 256 341.365C316.739 341.365 366.155 291.949 366.155 231.21C366.155 170.471 316.739 121.055 256 121.055ZM256 320.871C206.56 320.871 166.339 280.65 166.339 231.21C166.339 181.77 206.56 141.549 256 141.549C305.44 141.549 345.661 181.77 345.661 231.21C345.661 280.65 305.44 320.871 256 320.871Z" fill="#004272"/>
<path d="M282.642 199.445C288.3 199.445 292.889 194.856 292.889 189.198C292.889 183.54 288.3 178.951 282.642 178.951H229.358C223.7 178.951 219.111 183.54 219.111 189.198C219.111 194.856 223.7 199.445 229.358 199.445H245.753V262.976H229.358C223.7 262.976 219.111 267.565 219.111 273.223C219.111 278.881 223.7 283.47 229.358 283.47H282.642C288.3 283.47 292.889 278.881 292.889 273.223C292.889 267.565 288.3 262.976 282.642 262.976H266.247V199.445H282.642Z" fill="#004272"/>
<path d="M256 47.9611C261.658 47.9611 266.247 43.3721 266.247 37.7141V18.2441C266.247 12.5861 261.658 7.99707 256 7.99707C250.342 7.99707 245.753 12.5861 245.753 18.2441V37.7131C245.753 43.3721 250.341 47.9611 256 47.9611Z" fill="#004272"/>
<path d="M439.25 231.21C439.25 236.868 443.839 241.457 449.497 241.457H468.966C474.624 241.457 479.213 236.868 479.213 231.21C479.213 225.552 474.624 220.963 468.966 220.963H449.497C443.838 220.963 439.25 225.551 439.25 231.21Z" fill="#004272"/>
<path d="M43.0341 241.457H62.5031C68.1611 241.457 72.7501 236.868 72.7501 231.21C72.7501 225.552 68.1611 220.963 62.5031 220.963H43.0341C37.3761 220.963 32.7871 225.552 32.7871 231.21C32.7871 236.868 37.3751 241.457 43.0341 241.457Z" fill="#004272"/>
<path d="M347.625 72.511C349.239 73.442 351 73.886 352.738 73.886C356.279 73.886 359.724 72.048 361.622 68.761L371.357 51.9C374.187 46.999 372.508 40.732 367.607 37.903C362.705 35.073 356.439 36.753 353.61 41.653L343.875 58.514C341.045 63.415 342.724 69.682 347.625 72.511Z" fill="#004272"/>
<path d="M66.4431 133.601L83.3041 143.336C84.9181 144.267 86.6791 144.711 88.4171 144.711C91.9581 144.711 95.4031 142.873 97.3011 139.586C100.131 134.685 98.4521 128.418 93.5511 125.589L76.6901 115.854C71.7881 113.024 65.5211 114.704 62.6931 119.604C59.8621 124.504 61.5401 130.771 66.4431 133.601Z" fill="#004272"/>
<path d="M423.583 144.71C425.321 144.71 427.082 144.266 428.696 143.335L445.557 133.6C450.458 130.771 452.138 124.504 449.307 119.603C446.478 114.703 440.214 113.023 435.31 115.853L418.449 125.588C413.548 128.417 411.868 134.684 414.699 139.585C416.598 142.872 420.041 144.71 423.583 144.71Z" fill="#004272"/>
<path d="M150.378 68.76C152.277 72.047 155.72 73.886 159.262 73.886C161 73.886 162.761 73.442 164.375 72.511C169.276 69.682 170.956 63.415 168.125 58.514L158.39 41.653C155.56 36.754 149.296 35.072 144.393 37.903C139.492 40.732 137.812 46.999 140.643 51.9L150.378 68.76Z" fill="#004272"/>
<path d="M511.105 435.729C503.702 419.208 492.242 417.836 483.034 416.734C477.178 416.032 471.647 415.37 464.942 411.106C459.739 407.797 459.16 404.929 458.255 397.123C457.37 389.501 456.157 379.063 446.452 369.357C436.397 359.303 427.062 358.043 419.562 357.032C413.556 356.221 409.589 355.687 404.429 350.523C399.266 345.36 398.729 341.391 397.915 335.384C397.219 330.235 396.405 324.221 392.707 317.704L393.295 317.443C397.349 315.638 399.781 311.43 399.321 307.016L395.302 268.542L418 237.224C420.601 233.637 420.601 228.786 418 225.198L395.302 193.88L399.321 155.407C399.781 150.993 397.349 146.784 393.295 144.98L357.956 129.255L342.232 93.914C340.427 89.86 336.235 87.43 331.805 87.888L293.331 91.907L262.013 69.209C258.427 66.609 253.574 66.609 249.987 69.209L218.669 91.907L180.196 87.888C175.783 87.432 171.573 89.86 169.769 93.914L154.044 129.253L118.705 144.977C114.651 146.782 112.219 150.99 112.679 155.404L116.698 193.878L94.0001 225.196C91.3991 228.783 91.3991 233.634 94.0001 237.222L116.698 268.54L112.679 307.013C112.219 311.427 114.65 315.636 118.705 317.44L119.293 317.702C115.596 324.22 114.781 330.234 114.085 335.383C113.271 341.39 112.734 345.358 107.569 350.525C102.413 355.684 98.4451 356.22 92.4381 357.031C84.9381 358.042 75.6031 359.303 65.5481 369.356C55.8431 379.062 54.6311 389.499 53.7461 397.121C52.8391 404.928 52.2611 407.796 47.0581 411.105C40.3531 415.369 34.8221 416.032 28.9661 416.733C19.7591 417.835 8.29913 419.207 0.895129 435.728C-0.440871 438.711 -0.274871 442.153 1.34413 444.992C2.96213 447.831 5.83913 449.729 9.08813 450.098L65.1041 456.477L62.1301 492.921C61.8351 496.532 63.4691 500.03 66.4281 502.122C68.1871 503.366 70.2581 504.002 72.3441 504.002C73.7661 504.002 75.1951 503.706 76.5351 503.105C83.1001 500.162 87.5991 499.282 91.9491 498.43C100.026 496.849 107.655 495.356 119.163 483.849C129.217 473.795 130.48 464.464 131.493 456.966C132.307 450.958 132.844 446.99 138.009 441.823C143.167 436.662 147.136 436.125 153.145 435.313C160.643 434.301 169.976 433.039 180.03 422.992C190.084 412.938 191.344 403.601 192.356 396.1C193.167 390.091 193.701 386.122 198.864 380.96C203.115 376.709 207.807 375.976 215.106 375.134C217.803 374.824 220.554 374.499 223.334 373.893L249.986 393.21C251.779 394.51 253.89 395.16 255.999 395.16C258.108 395.16 260.219 394.509 262.012 393.21L288.664 373.893C291.444 374.498 294.195 374.822 296.892 375.134C304.192 375.975 308.882 376.708 313.134 380.96C318.295 386.121 318.831 390.091 319.642 396.1C320.654 403.601 321.914 412.938 331.971 422.994C342.023 433.04 351.355 434.301 358.853 435.313C364.861 436.125 368.829 436.66 373.99 441.825C379.153 446.988 379.69 450.957 380.504 456.965C381.517 464.463 382.781 473.795 392.834 483.848C404.341 495.355 411.971 496.849 420.048 498.429C424.399 499.281 428.897 500.161 435.462 503.104C436.802 503.704 438.231 504.001 439.653 504.001C441.738 504.001 443.811 503.365 445.569 502.121C448.528 500.03 450.162 496.532 449.867 492.92L446.893 456.476L502.909 450.097C506.157 449.728 509.035 447.83 510.653 444.991C512.275 442.154 512.441 438.713 511.105 435.729ZM177.933 374.515C173.65 381.482 172.783 387.907 172.046 393.361C171.235 399.37 170.701 403.34 165.541 408.499C160.38 413.656 156.41 414.193 150.401 415.005C142.9 416.018 133.564 417.281 123.516 427.335C113.462 437.389 112.199 446.72 111.185 454.218C110.372 460.226 109.835 464.194 104.672 469.358C97.5841 476.446 94.5851 477.033 88.0131 478.319C86.7061 478.575 85.3131 478.848 83.8141 479.181L86.3381 448.254C86.7881 442.74 82.7801 437.865 77.2841 437.24L47.0461 433.797C50.4971 432.576 54.1851 430.862 58.0551 428.401C71.7571 419.686 73.1131 408.012 74.1031 399.487C74.8441 393.114 75.3781 388.511 80.0401 383.849C85.2011 378.688 89.1701 378.152 95.1781 377.341C102.679 376.33 112.014 375.069 122.062 365.015C132.116 354.962 133.379 345.63 134.393 338.132C135.034 333.388 135.505 329.916 138.215 326.124L154.042 333.167L169.766 368.506C171.26 371.863 174.394 374.1 177.941 374.513L177.933 374.515ZM326.533 353.375L291.559 349.722C289.044 349.461 286.526 350.135 284.481 351.618L256 372.259L227.519 351.617C225.763 350.344 223.657 349.667 221.506 349.667C221.151 349.667 220.797 349.685 220.441 349.722L185.467 353.375L171.168 321.238C170.137 318.923 168.287 317.073 165.972 316.042L133.835 301.743L137.488 266.769C137.75 264.256 137.076 261.736 135.592 259.691L114.949 231.21L135.592 202.729C137.075 200.685 137.749 198.164 137.488 195.651L133.835 160.677L165.972 146.378C168.287 145.347 170.137 143.497 171.168 141.182L185.467 109.045L220.441 112.698C222.954 112.96 225.474 112.285 227.519 110.802L256 90.161L284.481 110.804C286.526 112.287 289.047 112.961 291.559 112.7L326.533 109.047L340.832 141.184C341.863 143.499 343.713 145.349 346.028 146.38L378.165 160.679L374.512 195.653C374.25 198.166 374.924 200.686 376.408 202.731L397.051 231.212L376.408 259.693C374.925 261.737 374.251 264.258 374.512 266.771L378.165 301.745L346.028 316.044C343.713 317.075 341.863 318.925 340.832 321.24L326.533 353.375ZM434.717 437.24C429.221 437.865 425.213 442.741 425.663 448.254L428.187 479.181C426.688 478.848 425.296 478.575 423.988 478.319C417.417 477.033 414.417 476.446 407.329 469.358C402.166 464.195 401.629 460.226 400.816 454.218C399.802 446.72 398.538 437.388 388.487 427.338C378.436 417.281 369.101 416.018 361.6 415.005C355.591 414.193 351.622 413.658 346.463 408.501C341.302 403.34 340.766 399.37 339.955 393.361C339.218 387.907 338.352 381.482 334.068 374.516L334.056 374.511C337.597 374.097 340.739 371.861 342.232 368.505L357.957 333.166L373.784 326.124C376.494 329.916 376.965 333.389 377.606 338.132C378.62 345.63 379.884 354.963 389.935 365.012C399.986 375.069 409.32 376.33 416.821 377.341C422.829 378.151 426.797 378.686 431.959 383.849C436.622 388.511 437.156 393.115 437.896 399.487C438.886 408.011 440.242 419.686 453.944 428.401C457.814 430.861 461.502 432.575 464.953 433.797L434.717 437.24Z" fill="#004272"/>
</g>
<defs>
<clipPath id="clip0">
<rect width="512" height="512" fill="white"/>
</clipPath>
</defs>
</svg>
