<svg width="512" height="512" viewBox="0 0 512 512" fill="none" xmlns="http://www.w3.org/2000/svg">
<g clip-path="url(#clip0)">
<path d="M502 146H479.016L261.53 1.66802C258.18 -0.556982 253.821 -0.556982 250.471 1.66802L32.984 146H10C4.478 146 0 150.478 0 156V196C0 201.522 4.478 206 10 206H46V236C46 241.522 50.478 246 56 246H66V372H56C50.478 372 46 376.478 46 382V412H33C27.478 412 23 416.478 23 422V452H10C4.478 452 0 456.478 0 462V502C0 507.522 4.478 512 10 512H211C216.522 512 221 507.522 221 502C221 496.478 216.522 492 211 492H20V472H492V492H301C295.478 492 291 496.478 291 502C291 507.522 295.478 512 301 512H502C507.522 512 512 507.522 512 502V462C512 456.478 507.522 452 502 452H489V422C489 416.478 484.522 412 479 412H466V382C466 376.478 461.522 372 456 372H446V246H456C461.522 246 466 241.522 466 236V206H502C507.522 206 512 201.522 512 196V156C512 150.478 507.523 146 502 146ZM256 22.002L442.847 146H345.441C340.45 101.063 302.245 66 256 66C209.755 66 171.549 101.063 166.559 146H69.153L256 22.002ZM356 246H366V372H356C350.478 372 346 376.478 346 382V412H326V336C326 297.402 294.598 266 256 266C217.402 266 186 297.402 186 336V412H166V382C166 376.478 161.522 372 156 372H146V246H156C161.522 246 166 241.522 166 236V206H181.159C197.785 230.812 225.944 246 256 246C286.053 246 314.21 230.814 330.841 206H346V236C346 241.523 350.478 246 356 246ZM446 392V412H366V392H446ZM386 372V246H426V372H386ZM306 336V412H206V336C206 308.43 228.43 286 256 286C283.57 286 306 308.43 306 336ZM66 226V206H146V226H66ZM126 246V372H86V246H126ZM256.17 165.581C261.684 165.581 266.17 170.067 266.17 175.581C266.17 181.17 261.591 185.66 256.092 185.581C251.764 185.542 247.304 182.93 243.195 178.027C239.646 173.794 233.34 173.239 229.107 176.788C224.875 180.336 224.319 186.642 227.867 190.875C233.154 197.182 239.385 201.598 246.001 203.854V225.269C212.321 220.365 186.001 191.563 186.001 156.002C186.001 120.8 212.125 91.596 246.001 86.728V107.371C234.46 111.561 226.171 122.653 226.171 135.583C226.17 152.123 239.628 165.581 256.17 165.581V165.581ZM280.895 116.435C275.765 111.47 270.626 108.678 266 107.172V86.726C299.876 91.595 326 120.799 326 156C326 191.563 299.682 220.363 266 225.267V203.939C277.516 199.957 286.17 188.947 286.17 175.58C286.17 159.038 272.712 145.58 256.17 145.58C250.656 145.58 246.17 141.094 246.17 135.58C246.17 130.11 250.616 125.625 256.07 125.58C256.094 125.58 256.119 125.579 256.143 125.579C259.704 125.579 263.452 127.386 266.986 130.806C270.954 134.649 277.287 134.544 281.126 130.575C284.967 126.606 284.864 120.276 280.895 116.435V116.435ZM20 186V166H166.568C167.331 172.828 168.87 179.54 171.149 186H20ZM66 392H146V412H66V392ZM469 432V452H43V432H469ZM446 226H366V206H446V226ZM492 186H340.852C343.131 179.541 344.67 172.829 345.432 166H492V186Z" fill="#004272"/>
<path d="M256 512C261.523 512 266 507.523 266 502C266 496.477 261.523 492 256 492C250.477 492 246 496.477 246 502C246 507.523 250.477 512 256 512Z" fill="#004272"/>
</g>
<defs>
<clipPath id="clip0">
<rect width="512" height="512" fill="white"/>
</clipPath>
</defs>
</svg>
