<svg width="512" height="512" viewBox="0 0 512 512" fill="none" xmlns="http://www.w3.org/2000/svg">
<path d="M472 244C472 249.523 467.523 254 462 254C456.477 254 452 249.523 452 244C452 238.477 456.477 234 462 234C467.523 234 472 238.477 472 244Z" fill="#004272"/>
<path d="M472 204C472 209.523 467.523 214 462 214C456.477 214 452 209.523 452 204C452 198.477 456.477 194 462 194C467.523 194 472 198.477 472 204Z" fill="#004272"/>
<path d="M472 324C472 329.523 467.523 334 462 334C456.477 334 452 329.523 452 324C452 318.477 456.477 314 462 314C467.523 314 472 318.477 472 324Z" fill="#004272"/>
<path d="M472 164C472 169.523 467.523 174 462 174C456.477 174 452 169.523 452 164C452 158.477 456.477 154 462 154C467.523 154 472 158.477 472 164Z" fill="#004272"/>
<path d="M472 284C472 289.523 467.523 294 462 294C456.477 294 452 289.523 452 284C452 278.477 456.477 274 462 274C467.523 274 472 278.477 472 284Z" fill="#004272"/>
<path d="M472 364C472 369.523 467.523 374 462 374C456.477 374 452 369.523 452 364C452 358.477 456.477 354 462 354C467.523 354 472 358.477 472 364Z" fill="#004272"/>
<path d="M472 444C472 449.523 467.523 454 462 454C456.477 454 452 449.523 452 444C452 438.477 456.477 434 462 434C467.523 434 472 438.477 472 444Z" fill="#004272"/>
<path d="M472 404C472 409.523 467.523 414 462 414C456.477 414 452 409.523 452 404C452 398.477 456.477 394 462 394C467.523 394 472 398.477 472 404Z" fill="#004272"/>
<path d="M432 404C432 409.523 427.523 414 422 414C416.477 414 412 409.523 412 404C412 398.477 416.477 394 422 394C427.523 394 432 398.477 432 404Z" fill="#004272"/>
<path d="M432 444C432 449.523 427.523 454 422 454C416.477 454 412 449.523 412 444C412 438.477 416.477 434 422 434C427.523 434 432 438.477 432 444Z" fill="#004272"/>
<path d="M432 204C432 209.523 427.523 214 422 214C416.477 214 412 209.523 412 204C412 198.477 416.477 194 422 194C427.523 194 432 198.477 432 204Z" fill="#004272"/>
<path d="M432 364C432 369.523 427.523 374 422 374C416.477 374 412 369.523 412 364C412 358.477 416.477 354 422 354C427.523 354 432 358.477 432 364Z" fill="#004272"/>
<path d="M432 284C432 289.523 427.523 294 422 294C416.477 294 412 289.523 412 284C412 278.477 416.477 274 422 274C427.523 274 432 278.477 432 284Z" fill="#004272"/>
<path d="M432 324C432 329.523 427.523 334 422 334C416.477 334 412 329.523 412 324C412 318.477 416.477 314 422 314C427.523 314 432 318.477 432 324Z" fill="#004272"/>
<path d="M432 164C432 169.523 427.523 174 422 174C416.477 174 412 169.523 412 164C412 158.477 416.477 154 422 154C427.523 154 432 158.477 432 164Z" fill="#004272"/>
<path d="M432 244C432 249.523 427.523 254 422 254C416.477 254 412 249.523 412 244C412 238.477 416.477 234 422 234C427.523 234 432 238.477 432 244Z" fill="#004272"/>
<path d="M100 444C100 449.523 95.5234 454 90 454C84.4766 454 80 449.523 80 444C80 438.477 84.4766 434 90 434C95.5234 434 100 438.477 100 444Z" fill="#004272"/>
<path d="M100 164C100 169.523 95.5234 174 90 174C84.4766 174 80 169.523 80 164C80 158.477 84.4766 154 90 154C95.5234 154 100 158.477 100 164Z" fill="#004272"/>
<path d="M100 404C100 409.523 95.5234 414 90 414C84.4766 414 80 409.523 80 404C80 398.477 84.4766 394 90 394C95.5234 394 100 398.477 100 404Z" fill="#004272"/>
<path d="M100 324C100 329.523 95.5234 334 90 334C84.4766 334 80 329.523 80 324C80 318.477 84.4766 314 90 314C95.5234 314 100 318.477 100 324Z" fill="#004272"/>
<path d="M100 364C100 369.523 95.5234 374 90 374C84.4766 374 80 369.523 80 364C80 358.477 84.4766 354 90 354C95.5234 354 100 358.477 100 364Z" fill="#004272"/>
<path d="M100 244C100 249.523 95.5234 254 90 254C84.4766 254 80 249.523 80 244C80 238.477 84.4766 234 90 234C95.5234 234 100 238.477 100 244Z" fill="#004272"/>
<path d="M100 204C100 209.523 95.5234 214 90 214C84.4766 214 80 209.523 80 204C80 198.477 84.4766 194 90 194C95.5234 194 100 198.477 100 204Z" fill="#004272"/>
<path d="M100 284C100 289.523 95.5234 294 90 294C84.4766 294 80 289.523 80 284C80 278.477 84.4766 274 90 274C95.5234 274 100 278.477 100 284Z" fill="#004272"/>
<path d="M60 404C60 409.523 55.5234 414 50 414C44.4766 414 40 409.523 40 404C40 398.477 44.4766 394 50 394C55.5234 394 60 398.477 60 404Z" fill="#004272"/>
<path d="M60 204C60 209.523 55.5234 214 50 214C44.4766 214 40 209.523 40 204C40 198.477 44.4766 194 50 194C55.5234 194 60 198.477 60 204Z" fill="#004272"/>
<path d="M60 284C60 289.523 55.5234 294 50 294C44.4766 294 40 289.523 40 284C40 278.477 44.4766 274 50 274C55.5234 274 60 278.477 60 284Z" fill="#004272"/>
<path d="M60 244C60 249.523 55.5234 254 50 254C44.4766 254 40 249.523 40 244C40 238.477 44.4766 234 50 234C55.5234 234 60 238.477 60 244Z" fill="#004272"/>
<path d="M60 444C60 449.523 55.5234 454 50 454C44.4766 454 40 449.523 40 444C40 438.477 44.4766 434 50 434C55.5234 434 60 438.477 60 444Z" fill="#004272"/>
<path d="M60 364C60 369.523 55.5234 374 50 374C44.4766 374 40 369.523 40 364C40 358.477 44.4766 354 50 354C55.5234 354 60 358.477 60 364Z" fill="#004272"/>
<path d="M60 324C60 329.523 55.5234 334 50 334C44.4766 334 40 329.523 40 324C40 318.477 44.4766 314 50 314C55.5234 314 60 318.477 60 324Z" fill="#004272"/>
<path d="M60 164C60 169.523 55.5234 174 50 174C44.4766 174 40 169.523 40 164C40 158.477 44.4766 154 50 154C55.5234 154 60 158.477 60 164Z" fill="#004272"/>
<path d="M346 254C346 259.523 341.523 264 336 264C330.477 264 326 259.523 326 254C326 248.477 330.477 244 336 244C341.523 244 346 248.477 346 254Z" fill="#004272"/>
<path d="M346 174C346 179.523 341.523 184 336 184C330.477 184 326 179.523 326 174C326 168.477 330.477 164 336 164C341.523 164 346 168.477 346 174Z" fill="#004272"/>
<path d="M346 294C346 299.523 341.523 304 336 304C330.477 304 326 299.523 326 294C326 288.477 330.477 284 336 284C341.523 284 346 288.477 346 294Z" fill="#004272"/>
<path d="M346 134C346 139.523 341.523 144 336 144C330.477 144 326 139.523 326 134C326 128.477 330.477 124 336 124C341.523 124 346 128.477 346 134Z" fill="#004272"/>
<path d="M346 414C346 419.523 341.523 424 336 424C330.477 424 326 419.523 326 414C326 408.477 330.477 404 336 404C341.523 404 346 408.477 346 414Z" fill="#004272"/>
<path d="M346 334C346 339.523 341.523 344 336 344C330.477 344 326 339.523 326 334C326 328.477 330.477 324 336 324C341.523 324 346 328.477 346 334Z" fill="#004272"/>
<path d="M346 374C346 379.523 341.523 384 336 384C330.477 384 326 379.523 326 374C326 368.477 330.477 364 336 364C341.523 364 346 368.477 346 374Z" fill="#004272"/>
<path d="M346 214C346 219.523 341.523 224 336 224C330.477 224 326 219.523 326 214C326 208.477 330.477 204 336 204C341.523 204 346 208.477 346 214Z" fill="#004272"/>
<path d="M306 214C306 219.523 301.523 224 296 224C290.477 224 286 219.523 286 214C286 208.477 290.477 204 296 204C301.523 204 306 208.477 306 214Z" fill="#004272"/>
<path d="M306 174C306 179.523 301.523 184 296 184C290.477 184 286 179.523 286 174C286 168.477 290.477 164 296 164C301.523 164 306 168.477 306 174Z" fill="#004272"/>
<path d="M306 254C306 259.523 301.523 264 296 264C290.477 264 286 259.523 286 254C286 248.477 290.477 244 296 244C301.523 244 306 248.477 306 254Z" fill="#004272"/>
<path d="M306 134C306 139.523 301.523 144 296 144C290.477 144 286 139.523 286 134C286 128.477 290.477 124 296 124C301.523 124 306 128.477 306 134Z" fill="#004272"/>
<path d="M306 374C306 379.523 301.523 384 296 384C290.477 384 286 379.523 286 374C286 368.477 290.477 364 296 364C301.523 364 306 368.477 306 374Z" fill="#004272"/>
<path d="M306 334C306 339.523 301.523 344 296 344C290.477 344 286 339.523 286 334C286 328.477 290.477 324 296 324C301.523 324 306 328.477 306 334Z" fill="#004272"/>
<path d="M306 294C306 299.523 301.523 304 296 304C290.477 304 286 299.523 286 294C286 288.477 290.477 284 296 284C301.523 284 306 288.477 306 294Z" fill="#004272"/>
<path d="M226 374C226 379.523 221.523 384 216 384C210.477 384 206 379.523 206 374C206 368.477 210.477 364 216 364C221.523 364 226 368.477 226 374Z" fill="#004272"/>
<path d="M226 334C226 339.523 221.523 344 216 344C210.477 344 206 339.523 206 334C206 328.477 210.477 324 216 324C221.523 324 226 328.477 226 334Z" fill="#004272"/>
<path d="M226 134C226 139.523 221.523 144 216 144C210.477 144 206 139.523 206 134C206 128.477 210.477 124 216 124C221.523 124 226 128.477 226 134Z" fill="#004272"/>
<path d="M226 294C226 299.523 221.523 304 216 304C210.477 304 206 299.523 206 294C206 288.477 210.477 284 216 284C221.523 284 226 288.477 226 294Z" fill="#004272"/>
<path d="M226 174C226 179.523 221.523 184 216 184C210.477 184 206 179.523 206 174C206 168.477 210.477 164 216 164C221.523 164 226 168.477 226 174Z" fill="#004272"/>
<path d="M226 214C226 219.523 221.523 224 216 224C210.477 224 206 219.523 206 214C206 208.477 210.477 204 216 204C221.523 204 226 208.477 226 214Z" fill="#004272"/>
<path d="M226 254C226 259.523 221.523 264 216 264C210.477 264 206 259.523 206 254C206 248.477 210.477 244 216 244C221.523 244 226 248.477 226 254Z" fill="#004272"/>
<path d="M266 134C266 139.523 261.523 144 256 144C250.477 144 246 139.523 246 134C246 128.477 250.477 124 256 124C261.523 124 266 128.477 266 134Z" fill="#004272"/>
<path d="M266 334C266 339.523 261.523 344 256 344C250.477 344 246 339.523 246 334C246 328.477 250.477 324 256 324C261.523 324 266 328.477 266 334Z" fill="#004272"/>
<path d="M266 214C266 219.523 261.523 224 256 224C250.477 224 246 219.523 246 214C246 208.477 250.477 204 256 204C261.523 204 266 208.477 266 214Z" fill="#004272"/>
<path d="M266 254C266 259.523 261.523 264 256 264C250.477 264 246 259.523 246 254C246 248.477 250.477 244 256 244C261.523 244 266 248.477 266 254Z" fill="#004272"/>
<path d="M266 374C266 379.523 261.523 384 256 384C250.477 384 246 379.523 246 374C246 368.477 250.477 364 256 364C261.523 364 266 368.477 266 374Z" fill="#004272"/>
<path d="M266 294C266 299.523 261.523 304 256 304C250.477 304 246 299.523 246 294C246 288.477 250.477 284 256 284C261.523 284 266 288.477 266 294Z" fill="#004272"/>
<path d="M266 174C266 179.523 261.523 184 256 184C250.477 184 246 179.523 246 174C246 168.477 250.477 164 256 164C261.523 164 266 168.477 266 174Z" fill="#004272"/>
<path d="M186 174C186 179.523 181.523 184 176 184C170.477 184 166 179.523 166 174C166 168.477 170.477 164 176 164C181.523 164 186 168.477 186 174Z" fill="#004272"/>
<path d="M186 294C186 299.523 181.523 304 176 304C170.477 304 166 299.523 166 294C166 288.477 170.477 284 176 284C181.523 284 186 288.477 186 294Z" fill="#004272"/>
<path d="M186 254C186 259.523 181.523 264 176 264C170.477 264 166 259.523 166 254C166 248.477 170.477 244 176 244C181.523 244 186 248.477 186 254Z" fill="#004272"/>
<path d="M186 134C186 139.523 181.523 144 176 144C170.477 144 166 139.523 166 134C166 128.477 170.477 124 176 124C181.523 124 186 128.477 186 134Z" fill="#004272"/>
<path d="M186 334C186 339.523 181.523 344 176 344C170.477 344 166 339.523 166 334C166 328.477 170.477 324 176 324C181.523 324 186 328.477 186 334Z" fill="#004272"/>
<path d="M186 214C186 219.523 181.523 224 176 224C170.477 224 166 219.523 166 214C166 208.477 170.477 204 176 204C181.523 204 186 208.477 186 214Z" fill="#004272"/>
<path d="M186 374C186 379.523 181.523 384 176 384C170.477 384 166 379.523 166 374C166 368.477 170.477 364 176 364C181.523 364 186 368.477 186 374Z" fill="#004272"/>
<path d="M186 414C186 419.523 181.523 424 176 424C170.477 424 166 419.523 166 414C166 408.477 170.477 404 176 404C181.523 404 186 408.477 186 414Z" fill="#004272"/>
<path d="M502 114H392V94C392 88.4766 387.523 84 382 84H372V10C372 4.47656 367.523 0 362 0H150C144.477 0 140 4.47656 140 10V84H130C124.477 84 120 88.4766 120 94V114H10C4.47656 114 0 118.477 0 124V502C0 507.523 4.47656 512 10 512H502C507.523 512 512 507.523 512 502V124C512 118.477 507.523 114 502 114ZM120 492H20V134H120V492ZM160 20H352V84H160V20ZM206 492H140V472H206V492ZM246 492H226V432H246V492ZM286 492H266V432H286V492ZM372 492H306V472H372V492ZM372 452H306V422C306 416.477 301.523 412 296 412H216C210.477 412 206 416.477 206 422V452H140V104H372V452ZM492 492H392V134H492V492Z" fill="#004272"/>
<path d="M322 42C316.488 42 312 46.4883 312 52C312 57.5117 316.488 62 322 62C327.512 62 332 57.5117 332 52C332 46.4883 327.512 42 322 42Z" fill="#004272"/>
<path d="M282 42H230C224.488 42 220 46.4883 220 52C220 57.5117 224.488 62 230 62H282C287.512 62 292 57.5117 292 52C292 46.4883 287.512 42 282 42Z" fill="#004272"/>
<path d="M190 42C184.488 42 180 46.4883 180 52C180 57.5117 184.488 62 190 62C195.512 62 200 57.5117 200 52C200 46.4883 195.512 42 190 42Z" fill="#004272"/>
</svg>
