<svg width="512" height="512" viewBox="0 0 512 512" fill="none" xmlns="http://www.w3.org/2000/svg">
<path d="M461 305C466.523 305 471 300.523 471 295C471 289.477 466.523 285 461 285C455.477 285 451 289.477 451 295C451 300.523 455.477 305 461 305Z" fill="#004272"/>
<path d="M471 222C476.522 222 481 217.523 481 212V182H502C507.522 182 512 177.523 512 172V132C512 130 511.457 128.286 510.502 126.744C509.529 125.171 508.102 123.863 506.443 123.041L260.443 1.041C257.642 -0.347 254.356 -0.347 251.557 1.041C251.557 1.041 5.665 122.987 5.557 123.041C3.915 123.855 2.5 125.144 1.528 126.695C0.555 128.248 0.022 130.071 0.005 131.903C0.005 131.936 0 172 0 172C0 177.523 4.477 182 10 182H31V212C31 217.523 35.477 222 41 222V372C35.477 372 31 376.477 31 382V412H21C15.477 412 11 416.477 11 422V452H10C4.477 452 0 456.477 0 462V502C0 507.523 4.477 512 10 512H502C507.522 512 512 507.523 512 502V462C512 456.477 507.522 452 502 452H501V422C501 416.477 496.522 412 491 412H481V382C481 376.477 476.522 372 471 372V340C471 334.49 466.51 330 461 330C455.49 330 451 334.49 451 340V372H431V222H451V250C451 255.52 455.49 260 461 260C466.52 260 471 255.52 471 250V222ZM52.671 122L256 21.162L459.328 122H52.671ZM20 162V142H492V162H20ZM351 372V222C356.522 222 361 217.523 361 212V182H401V212C401 217.523 405.478 222 411 222V372C405.478 372 401 376.477 401 382V412H361V382C361 376.477 356.522 372 351 372ZM341 392V412H301V392H341ZM311 372V222H331V372H311ZM301 202V182H341V202H301ZM221 372V327C221 307.701 236.701 292 256 292C275.299 292 291 307.701 291 327V372C285.478 372 281 376.477 281 382V412H231V382C231 376.477 226.523 372 221 372ZM256 272C242.715 272 230.516 276.735 221 284.605V222C226.523 222 231 217.523 231 212V182H281V212C281 217.523 285.478 222 291 222V284.605C281.484 276.735 269.285 272 256 272ZM211 392V412H171V392H211ZM181 372V222H201V372H181ZM171 202V182H211V202H171ZM101 372V222C106.523 222 111 217.523 111 212V182H151V212C151 217.523 155.477 222 161 222V372C155.477 372 151 376.477 151 382V412H111V382C111 376.477 106.523 372 101 372ZM91 392V412H51V392H91ZM61 372V222H81V372H61ZM51 202V182H91V202H51ZM492 472V492H20V472H492ZM481 432V452H31V432H481ZM461 392V412H421V392H461ZM421 202V182H461V202H421Z" fill="#004272"/>
</svg>
